<svg width="101" height="106" viewBox="0 0 101 106" fill="none" xmlns="http://www.w3.org/2000/svg">
<path fill-rule="evenodd" clip-rule="evenodd" d="M17.0769 23.3377C22.5478 24.7201 76.3808 39.962 97.8769 45.9863C99.7581 46.5649 100.835 48.124 100.983 49.8597C101.021 50.3014 100.983 50.7342 100.903 51.1759C97.2709 66.9831 92.8816 82.6005 88.8669 98.315C88.3072 100.302 86.8048 101.415 85.172 101.566C84.7469 101.61 84.3387 101.574 83.9179 101.491C56.8204 94.6403 30.0512 86.3944 3.1221 78.8419C1.2031 78.2501 0.15943 76.6689 0.0163463 74.9685C-0.0215287 74.5268 0.0163463 74.0896 0.0920963 73.6567C3.7281 57.8406 8.11739 42.2233 12.1279 26.5132C12.7886 24.1945 14.7834 22.8916 17.0769 23.3377ZM9.36726 71.4484L81.8179 91.7695L91.6276 53.3798C71.4907 47.7309 19.1811 33.0676 19.1811 33.0676C15.907 45.8582 12.6371 58.6577 9.36726 71.4484ZM77.3234 86.814L78.4092 82.5607L66.9751 79.394L65.8852 83.6561L77.3234 86.814ZM56.2018 80.9619L60.2671 82.1191L62.1356 74.7962L58.0745 73.6391L56.2018 80.9619ZM80.223 75.0966L81.3129 70.8345L69.8747 67.6677L68.7805 71.9298L80.223 75.0966ZM25.7293 59.466L34.8866 55.6279L26.4699 46.7946L29.3695 45.5756L43.5978 51.9709L50.8572 48.9278C52.7762 48.1107 55.7936 48.6275 56.3743 50.1468L56.4711 50.9418C56.3533 52.4347 54.7752 54.3426 53.1802 55.0228L45.9208 58.0615L39.823 72.9854L36.915 74.2L37.2096 61.7141L28.0481 65.5521L25.885 69.9953L23.8481 70.8433L23.6924 63.8429L19.2106 58.6666L21.239 57.8141L25.7293 59.466ZM59.1645 69.3681L63.2297 70.5253L65.3465 62.2441L61.2771 61.0913L59.1645 69.3681ZM82.0957 67.4513L83.1856 63.1848L71.7432 60.0225L70.6574 64.2846L82.0957 67.4513ZM84.0526 59.6426L85.1425 55.3806L73.7043 52.2138L72.6143 56.4803L84.0526 59.6426ZM62.367 56.8248L66.4365 57.9776L68.305 50.6547L64.2397 49.502L62.367 56.8248ZM30.2111 19.3052C48.1344 14.3365 66.1208 9.58857 84.0273 4.56682C84.6291 4.41223 84.9026 4.41223 85.2856 4.41665C87.0826 4.54032 88.505 5.60915 89.1236 7.46857C91.9768 17.6137 94.5103 27.8471 97.0353 38.0805L87.5413 35.4128L82.142 14.2393L47.1371 24.0576L30.2111 19.3052Z" fill="white"/>
</svg>
