<svg width="133" height="132" viewBox="0 0 133 132" fill="none" xmlns="http://www.w3.org/2000/svg">
<path d="M66.5 11C97.0567 11 121.917 35.673 121.917 66C121.917 96.327 97.0567 121 66.5 121C35.9432 121 11.0833 96.327 11.0833 66C11.0833 35.673 35.9432 11 66.5 11ZM66.5 0C29.7754 0 0 29.5515 0 66C0 102.448 29.7754 132 66.5 132C103.225 132 133 102.448 133 66C133 29.5515 103.225 0 66.5 0ZM55.6439 93.5L30.7064 69.7455L38.437 61.853L55.5053 78.0065L94.4134 38.5L102.294 46.2495L55.6439 93.5Z" fill="white"/>
</svg>
