<svg width="46" height="47" viewBox="0 0 46 47" fill="none" xmlns="http://www.w3.org/2000/svg">
<path d="M42.1667 7.83333H3.83333C1.71733 7.83333 0 9.58799 0 11.75V35.25C0 37.412 1.71733 39.1667 3.83333 39.1667H42.1667C44.2827 39.1667 46 37.412 46 35.25V11.75C46 9.58799 44.2827 7.83333 42.1667 7.83333ZM42.1667 34.2708C42.1667 34.8113 41.7373 35.25 41.2083 35.25H4.79167C4.26267 35.25 3.83333 34.8113 3.83333 34.2708V21.5417H42.1667V34.2708ZM42.1667 15.6667H3.83333V12.7292C3.83333 12.1887 4.26267 11.75 4.79167 11.75H41.2083C41.7373 11.75 42.1667 12.1887 42.1667 12.7292V15.6667ZM24.9167 27.4167H7.66667V25.4583H24.9167V27.4167ZM19.1667 31.3333H7.66667V29.375H19.1667V31.3333ZM38.3333 27.4167H32.5833V25.4583H38.3333V27.4167Z" fill="#4C1460"/>
</svg>
