<svg width="71" height="73" viewBox="0 0 71 73" fill="none" xmlns="http://www.w3.org/2000/svg">
<g clip-path="url(#clip0)">
<path d="M35.5 6.08333C44.9548 6.08333 53.25 14.0464 53.25 23.1228C53.25 32.5306 45.8749 44.8159 35.5 61.6333C25.1251 44.8159 17.75 32.5306 17.75 23.1228C17.75 14.0464 26.0452 6.08333 35.5 6.08333ZM35.5 0C23.0809 0 11.8333 10.3508 11.8333 23.1228C11.8333 35.8917 22.0958 51.1365 35.5 73C48.9042 51.1365 59.1667 35.8917 59.1667 23.1228C59.1667 10.3508 47.922 0 35.5 0V0ZM35.5 33.4583C30.598 33.4583 26.625 29.3734 26.625 24.3333C26.625 19.2933 30.598 15.2083 35.5 15.2083C40.402 15.2083 44.375 19.2933 44.375 24.3333C44.375 29.3734 40.402 33.4583 35.5 33.4583Z" fill="white"/>
</g>
<defs>
<clipPath id="clip0">
<rect width="71" height="73" fill="white"/>
</clipPath>
</defs>
</svg>
