<svg width="1440" height="1024" viewBox="0 0 1440 1024" fill="none" xmlns="http://www.w3.org/2000/svg">
<g clip-path="url(#clip0)">
<rect width="1440" height="1024" fill="white"/>
<path d="M1594.05 467.944C1653.67 491.231 1633.27 618.085 1663.08 713.686C1692.89 809.899 1772.11 874.245 1758.77 926.948C1745.44 979.038 1637.98 1018.87 1553.27 1046.45C1468.55 1073.41 1405.8 1088.12 1331.29 1132.24C1257.56 1175.75 1172.06 1248.68 1088.13 1257.26C1004.99 1265.84 922.626 1210.07 880.27 1143.27C838.698 1075.86 837.913 997.423 843.404 928.174C848.11 858.312 860.66 797.03 891.251 741.263C921.057 685.496 970.473 635.244 1034.79 613.796C1098.33 592.347 1177.55 599.701 1286.58 562.931C1395.61 526.162 1534.44 445.27 1594.05 467.944Z" fill="url(#paint0_linear)"/>
<path d="M1709.05 507.944C1768.67 531.231 1748.27 658.085 1778.08 753.686C1807.89 849.899 1887.11 914.245 1873.77 966.948C1860.44 1019.04 1752.98 1058.87 1668.27 1086.45C1583.55 1113.41 1520.8 1128.12 1446.29 1172.24C1372.56 1215.75 1287.06 1288.68 1203.13 1297.26C1119.99 1305.84 1037.63 1250.07 995.27 1183.27C953.698 1115.86 952.913 1037.42 958.404 968.174C963.11 898.312 975.66 837.03 1006.25 781.263C1036.06 725.496 1085.47 675.244 1149.79 653.796C1213.33 632.347 1292.55 639.701 1401.58 602.931C1510.61 566.162 1649.44 485.27 1709.05 507.944Z" fill="url(#paint1_linear)"/>
<path d="M553.175 -248.358C606.235 -216.558 588.083 -43.3305 614.613 87.2177C641.144 218.603 711.659 306.471 699.79 378.44C687.921 449.572 592.272 503.967 516.87 541.625C441.468 578.447 385.615 598.531 319.289 658.784C253.662 718.2 177.562 817.785 102.858 829.501C28.8523 841.217 -44.4552 765.064 -82.1561 673.847C-119.159 581.794 -119.857 474.678 -114.97 380.114C-110.781 284.714 -99.6103 201.029 -72.3818 124.876C-45.8515 48.7227 -1.86703 -19.8987 55.3826 -49.1884C111.934 -78.478 182.449 -68.4358 279.494 -118.647C376.539 -168.857 500.114 -279.321 553.175 -248.358Z" fill="url(#paint2_linear)"/>
<path d="M553.175 -248.358C606.235 -216.558 588.083 -43.3305 614.613 87.2177C641.144 218.603 711.659 306.471 699.79 378.44C687.921 449.572 592.272 503.967 516.87 541.625C441.468 578.447 385.615 598.531 319.289 658.784C253.662 718.2 177.562 817.785 102.858 829.501C28.8523 841.217 -44.4552 765.064 -82.1561 673.847C-119.159 581.794 -119.857 474.678 -114.97 380.114C-110.781 284.714 -99.6103 201.029 -72.3818 124.876C-45.8515 48.7227 -1.86703 -19.8987 55.3826 -49.1884C111.934 -78.478 182.449 -68.4358 279.494 -118.647C376.539 -168.857 500.114 -279.321 553.175 -248.358Z" fill="url(#paint3_linear)"/>
<path d="M474.285 -314.614C527.345 -282.814 509.193 -109.587 535.723 20.9612C562.253 152.346 632.768 240.215 620.899 312.184C609.031 383.316 513.382 437.711 437.98 475.369C362.578 512.19 306.725 532.275 240.399 592.528C174.771 651.944 98.6714 751.529 23.9676 763.244C-50.038 774.96 -123.345 698.807 -161.046 607.591C-198.049 515.538 -198.747 408.421 -193.86 313.858C-189.671 218.457 -178.501 134.772 -151.272 58.6193C-124.742 -17.5337 -80.7573 -86.1551 -23.5077 -115.445C33.0437 -144.734 103.559 -134.692 200.604 -184.903C297.649 -235.114 421.224 -345.578 474.285 -314.614Z" fill="url(#paint4_linear)"/>
<path d="M1357.58 -19.1791C1400.77 -2.52304 1385.99 88.2088 1407.59 156.586C1429.18 225.402 1486.57 271.426 1476.91 309.121C1467.25 346.378 1389.4 374.869 1328.03 394.593C1266.65 413.879 1221.19 424.399 1167.21 455.958C1113.79 487.078 1051.85 539.238 991.042 545.375C930.806 551.511 871.137 511.624 840.45 463.847C810.332 415.632 809.764 359.528 813.742 309.998C817.151 260.029 826.244 216.198 848.406 176.311C870.001 136.424 905.802 100.482 952.4 85.1406C998.43 69.7994 1055.83 75.0593 1134.81 48.7602C1213.8 22.4611 1314.39 -35.3969 1357.58 -19.1791Z" fill="url(#paint5_linear)" fill-opacity="0.9"/>
<path d="M1319.58 26.8209C1362.77 43.477 1347.99 134.209 1369.59 202.586C1391.18 271.402 1448.57 317.426 1438.91 355.121C1429.25 392.378 1351.4 420.869 1290.03 440.593C1228.65 459.879 1183.19 470.399 1129.21 501.958C1075.79 533.078 1013.85 585.238 953.042 591.375C892.806 597.511 833.137 557.624 802.45 509.847C772.332 461.632 771.764 405.528 775.742 355.998C779.151 306.029 788.244 262.198 810.406 222.311C832.001 182.424 867.802 146.482 914.4 131.141C960.43 115.799 1017.83 121.059 1096.81 94.7602C1175.8 68.4611 1276.39 10.6031 1319.58 26.8209Z" fill="url(#paint6_linear)" fill-opacity="0.9"/>
</g>
<defs>
<linearGradient id="paint0_linear" x1="1446.37" y1="731.059" x2="1814.05" y2="1084.82" gradientUnits="userSpaceOnUse">
<stop stop-color="#1F1C20"/>
<stop offset="1" stop-color="#131416"/>
</linearGradient>
<linearGradient id="paint1_linear" x1="1561.37" y1="771.059" x2="1929.05" y2="1124.82" gradientUnits="userSpaceOnUse">
<stop stop-color="#0F0E0F"/>
<stop offset="1" stop-color="#131416"/>
</linearGradient>
<linearGradient id="paint2_linear" x1="421.727" y1="110.943" x2="874.052" y2="394.612" gradientUnits="userSpaceOnUse">
<stop stop-color="#0D0111"/>
<stop offset="1" stop-color="#BD00FF"/>
</linearGradient>
<linearGradient id="paint3_linear" x1="421.727" y1="110.943" x2="874.052" y2="394.612" gradientUnits="userSpaceOnUse">
<stop stop-color="#0D0111"/>
<stop offset="1" stop-color="#BD00FF"/>
</linearGradient>
<linearGradient id="paint4_linear" x1="342.837" y1="44.6862" x2="795.161" y2="328.356" gradientUnits="userSpaceOnUse">
<stop stop-color="#BD00FF"/>
<stop offset="1" stop-color="#BD00FF"/>
</linearGradient>
<linearGradient id="paint5_linear" x1="1250.59" y1="169.013" x2="1513.67" y2="425.413" gradientUnits="userSpaceOnUse">
<stop stop-color="#7A6183"/>
<stop offset="1" stop-color="#EDF1F8"/>
</linearGradient>
<linearGradient id="paint6_linear" x1="1212.59" y1="215.013" x2="1475.67" y2="471.413" gradientUnits="userSpaceOnUse">
<stop stop-color="#DFAAF2"/>
<stop offset="1" stop-color="#EDF1F8"/>
</linearGradient>
<clipPath id="clip0">
<rect width="1440" height="1024" fill="white"/>
</clipPath>
</defs>
</svg>
