<svg width="1440" height="1023" viewBox="0 0 1440 1023" fill="none" xmlns="http://www.w3.org/2000/svg">
<g clip-path="url(#clip0)">
<path d="M1455.54 446.746C1595.28 518.037 1701.74 614.788 1723.92 715.905C1744.99 817.748 1682.89 923.229 1571.99 979.243C1459.97 1034.53 1300.27 1040.35 1191.59 1078.18C1082.91 1116.73 1026.34 1188.02 894.37 1255.68C762.396 1323.33 555.008 1386.62 427.469 1352.43C298.822 1318.24 250.025 1186.57 264.442 1074.54C278.859 961.784 358.709 869.397 410.834 774.101C462.958 678.077 488.466 579.143 577.188 497.668C665.91 416.193 816.738 351.45 979.765 341.265C1141.68 331.809 1315.8 376.183 1455.54 446.746Z" fill="white"/>
<path d="M1237.54 138.746C1377.28 210.037 1483.74 306.788 1505.92 407.905C1526.99 509.748 1464.89 615.229 1353.99 671.243C1241.97 726.53 1082.27 732.349 973.59 770.177C864.905 808.732 808.345 880.023 676.37 947.676C544.396 1015.33 337.008 1078.62 209.469 1044.43C80.8219 1010.24 32.0246 878.568 46.442 766.54C60.8594 653.784 140.709 561.397 192.834 466.101C244.958 370.077 270.466 271.143 359.188 189.668C447.91 108.193 598.738 43.4498 761.765 33.2654C923.684 23.8085 1097.8 68.1832 1237.54 138.746Z" fill="url(#paint0_linear)"/>
<path d="M1184.54 30.7463C1324.28 102.037 1430.74 198.788 1452.92 299.905C1473.99 401.748 1411.89 507.229 1300.99 563.243C1188.97 618.53 1029.27 624.349 920.59 662.177C811.905 700.732 755.345 772.023 623.37 839.676C491.396 907.329 284.008 970.618 156.469 936.427C27.8219 902.237 -20.9754 770.568 -6.558 658.54C7.85937 545.784 87.7094 453.397 139.834 358.101C191.958 262.077 217.466 163.143 306.188 81.6682C394.91 0.193237 545.738 -64.5502 708.765 -74.7346C870.684 -84.1915 1044.8 -39.8168 1184.54 30.7463Z" fill="#B74ADE"/>
</g>
<defs>
<linearGradient id="paint0_linear" x1="777" y1="32" x2="777" y2="1054" gradientUnits="userSpaceOnUse">
<stop stop-color="#7C16A0"/>
<stop offset="1" stop-color="#B74ADE"/>
</linearGradient>
<clipPath id="clip0">
<rect width="1971" height="1465" fill="white" transform="translate(-330 -180)"/>
</clipPath>
</defs>
</svg>
