<svg width="1434" height="1023" viewBox="0 0 1434 1023" fill="none" xmlns="http://www.w3.org/2000/svg">
<g clip-path="url(#clip0)">
<path d="M1432.54 266.746C1572.28 338.037 1678.74 434.788 1700.92 535.905C1721.99 637.748 1659.89 743.229 1548.99 799.243C1436.97 854.53 1277.27 860.349 1168.59 898.177C1059.91 936.732 1003.34 1008.02 871.37 1075.68C739.396 1143.33 532.008 1206.62 404.469 1172.43C275.822 1138.24 227.025 1006.57 241.442 894.54C255.859 781.784 335.709 689.397 387.834 594.101C439.958 498.077 465.466 399.143 554.188 317.668C642.91 236.193 793.738 171.45 956.765 161.265C1118.68 151.809 1292.8 196.183 1432.54 266.746Z" fill="white"/>
<path d="M1214.54 -41.2537C1354.28 30.0369 1460.74 126.788 1482.92 227.905C1503.99 329.748 1441.89 435.229 1330.99 491.243C1218.97 546.53 1059.27 552.349 950.59 590.177C841.905 628.732 785.345 700.023 653.37 767.676C521.396 835.329 314.008 898.618 186.469 864.427C57.8219 830.237 9.02463 698.568 23.442 586.54C37.8594 473.784 117.709 381.397 169.834 286.101C221.958 190.077 247.466 91.1431 336.188 9.66815C424.91 -71.8068 575.738 -136.55 738.765 -146.735C900.684 -156.191 1074.8 -111.817 1214.54 -41.2537Z" fill="url(#paint0_linear)"/>
<path d="M1161.54 -149.254C1301.28 -77.9631 1407.74 18.7884 1429.92 119.905C1450.99 221.748 1388.89 327.229 1277.99 383.243C1165.97 438.53 1006.27 444.349 897.59 482.177C788.905 520.732 732.345 592.023 600.37 659.676C468.396 727.329 261.008 790.618 133.469 756.427C4.8219 722.237 -43.9754 590.568 -29.558 478.54C-15.1406 365.784 64.7094 273.397 116.834 178.101C168.958 82.0769 194.466 -16.8569 283.188 -98.3318C371.91 -179.807 522.738 -244.55 685.765 -254.735C847.684 -264.191 1021.8 -219.817 1161.54 -149.254Z" fill="#B74ADE"/>
</g>
<defs>
<linearGradient id="paint0_linear" x1="754" y1="-148" x2="754" y2="874" gradientUnits="userSpaceOnUse">
<stop stop-color="#7C16A0"/>
<stop offset="1" stop-color="#B74ADE"/>
</linearGradient>
<clipPath id="clip0">
<rect width="1971" height="1465" fill="white" transform="translate(-353 -360)"/>
</clipPath>
</defs>
</svg>
