<svg width="135" height="126" viewBox="0 0 135 126" fill="none" xmlns="http://www.w3.org/2000/svg">
<path d="M67.5 10.5C98.5162 10.5 123.75 34.0515 123.75 63C123.75 91.9485 98.5162 115.5 67.5 115.5C36.4838 115.5 11.25 91.9485 11.25 63C11.25 34.0515 36.4838 10.5 67.5 10.5ZM67.5 0C30.2231 0 0 28.2083 0 63C0 97.7917 30.2231 126 67.5 126C104.777 126 135 97.7917 135 63C135 28.2083 104.777 0 67.5 0ZM95.625 81.5745L75.42 62.9475L95.3663 44.1157L87.4013 36.75L67.4606 55.5922L47.2781 36.9915L39.375 44.3678L59.5856 63.0158L39.6338 81.8738L47.5369 89.25L67.5337 70.371L87.7331 89.0085L95.625 81.5745V81.5745Z" fill="white"/>
</svg>
