<svg width="138" height="126" viewBox="0 0 138 126" fill="none" xmlns="http://www.w3.org/2000/svg">
<path d="M69 10.5C100.705 10.5 126.5 34.0515 126.5 63C126.5 91.9485 100.705 115.5 69 115.5C37.2945 115.5 11.5 91.9485 11.5 63C11.5 34.0515 37.2945 10.5 69 10.5ZM69 0C30.8948 0 0 28.2083 0 63C0 97.7917 30.8948 126 69 126C107.105 126 138 97.7917 138 63C138 28.2083 107.105 0 69 0ZM63.25 31.5H74.75V73.5H63.25V31.5ZM69 95.8125C65.0325 95.8125 61.8125 92.8725 61.8125 89.25C61.8125 85.6275 65.0325 82.6875 69 82.6875C72.9675 82.6875 76.1875 85.6275 76.1875 89.25C76.1875 92.8725 72.9675 95.8125 69 95.8125Z" fill="white"/>
</svg>
